<svg width="500" height="500" viewBox="0 0 500 500" fill="none" xmlns="http://www.w3.org/2000/svg">
  <!-- Background elements -->
  <circle cx="250" cy="250" r="220" fill="#170B25" opacity="0.6" />
  <circle cx="250" cy="250" r="140" stroke="#EB38D9" stroke-width="1.5" stroke-dasharray="2 4" opacity="0.3" />
  <circle cx="250" cy="250" r="180" stroke="#9333EA" stroke-width="1" stroke-dasharray="1 3" opacity="0.4" />
  
  <!-- Central element -->
  <g>
    <circle cx="250" cy="250" r="70" fill="#100D19" stroke="#EB38D9" stroke-width="2" />
    <circle cx="250" cy="250" r="45" fill="#170B25" stroke="#9333EA" stroke-width="1.5" />
    
    <!-- Brain icon stylized -->
    <path d="M250 225C236.19 225 225 236.19 225 250C225 263.81 236.19 275 250 275C263.81 275 275 263.81 275 250C275 236.19 263.81 225 250 225Z" fill="#9333EA" opacity="0.9"/>
    <path d="M262 245C259.5 241 255 239 250 239C245 239 240.5 241 238 245" stroke="white" stroke-width="1.5" stroke-linecap="round"/>
    <path d="M235 252.5C235 251.12 235.53 249.8 236.47 248.84C237.42 247.89 238.71 247.35 240.06 247.35C241.41 247.35 242.7 247.89 243.65 248.84C244.59 249.8 245.12 251.12 245.12 252.5" stroke="white" stroke-width="1.5" stroke-linecap="round"/>
    <path d="M254.88 252.5C254.88 251.12 255.41 249.8 256.35 248.84C257.3 247.89 258.59 247.35 259.94 247.35C261.29 247.35 262.58 247.89 263.53 248.84C264.47 249.8 265 251.12 265 252.5" stroke="white" stroke-width="1.5" stroke-linecap="round"/>
    <path d="M260 260H240" stroke="white" stroke-width="1.5" stroke-linecap="round"/>
  </g>
  
  <!-- Connection lines -->
  <line x1="152" y1="168" x2="205" y2="215" stroke="#EB38D9" stroke-width="1.5" opacity="0.6" />
  <line x1="348" y1="168" x2="295" y2="215" stroke="#9333EA" stroke-width="1.5" opacity="0.6" />
  <line x1="152" y1="332" x2="205" y2="285" stroke="#9333EA" stroke-width="1.5" opacity="0.6" />
  <line x1="348" y1="332" x2="295" y2="285" stroke="#EB38D9" stroke-width="1.5" opacity="0.6" />
  <line x1="250" y1="130" x2="250" y2="180" stroke="#EB38D9" stroke-width="1.5" opacity="0.6" />
  <line x1="250" y1="370" x2="250" y2="320" stroke="#9333EA" stroke-width="1.5" opacity="0.6" />

  <!-- Document Analysis Node -->
  <g>
    <circle cx="152" cy="168" r="38" fill="#100D19" stroke="#9333EA" stroke-width="1.5" />
    <rect x="135" y="150" width="34" height="42" rx="2" fill="#100D19" stroke="#EB38D9" stroke-width="1.5"/>
    <line x1="142" y1="159" x2="162" y2="159" stroke="#EB38D9" stroke-width="1.5"/>
    <line x1="142" y1="167" x2="162" y2="167" stroke="#EB38D9" stroke-width="1.5"/>
    <line x1="142" y1="175" x2="155" y2="175" stroke="#EB38D9" stroke-width="1.5"/>
    <path d="M157 178L162 175L157 172" stroke="#EB38D9" stroke-width="1.5" stroke-linecap="round" stroke-linejoin="round"/>
  </g>

  <!-- Client Insights Node -->
  <g>
    <circle cx="348" cy="168" r="38" fill="#100D19" stroke="#EB38D9" stroke-width="1.5" />
    <circle cx="348" cy="161" r="10" stroke="#9333EA" stroke-width="1.5"/>
    <path d="M335 181C335 174.373 340.82 169 348 169C355.18 169 361 174.373 361 181" stroke="#9333EA" stroke-width="1.5"/>
    <path d="M335 192L339 187M361 192L357 187" stroke="#9333EA" stroke-width="1.5" stroke-linecap="round"/>
  </g>
  
  <!-- Market Analysis Node -->
  <g>
    <circle cx="152" cy="332" r="38" fill="#100D19" stroke="#EB38D9" stroke-width="1.5" />
    <polyline points="140,344 145,334 152,338 159,325 166,332 172,320" stroke="#9333EA" stroke-width="1.5" fill="none" stroke-linecap="round" stroke-linejoin="round"/>
    <rect x="134" y="316" width="36" height="36" rx="2" stroke="#9333EA" stroke-width="1" fill="none" stroke-dasharray="3 1"/>
  </g>

  <!-- Financial Optimization Node -->
  <g>
    <circle cx="348" cy="332" r="38" fill="#100D19" stroke="#9333EA" stroke-width="1.5" />
    <circle cx="348" cy="332" r="17" stroke="#EB38D9" stroke-width="1.5" fill="none"/>
    <path d="M348 315V319M348 345V349" stroke="#EB38D9" stroke-width="1.5" stroke-linecap="round"/>
    <path d="M331 332H335M361 332H365" stroke="#EB38D9" stroke-width="1.5" stroke-linecap="round"/>
    <path d="M348 323V341" stroke="#EB38D9" stroke-width="1.5" stroke-linecap="round"/>
    <path d="M343 328H353" stroke="#EB38D9" stroke-width="1.5" stroke-linecap="round"/>
  </g>

  <!-- Risk Assessment Node -->
  <g>
    <circle cx="250" cy="130" r="38" fill="#100D19" stroke="#9333EA" stroke-width="1.5" />
    <path d="M250 110V125" stroke="#EB38D9" stroke-width="2" stroke-linecap="round"/>
    <circle cx="250" cy="133" r="3" fill="#EB38D9"/>
    <path d="M235 130L245 140L265 120" stroke="#EB38D9" stroke-width="1.5" stroke-linecap="round" stroke-linejoin="round"/>
    <path d="M235 147H265" stroke="#EB38D9" stroke-width="1.5" stroke-linecap="round"/>
  </g>

  <!-- Strategy Insights Node -->
  <g>
    <circle cx="250" cy="370" r="38" fill="#100D19" stroke="#EB38D9" stroke-width="1.5" />
    <path d="M235 359L250 374L265 359" stroke="#9333EA" stroke-width="1.5" stroke-linecap="round" stroke-linejoin="round"/>
    <rect x="240" y="359" width="20" height="20" stroke="#9333EA" stroke-width="1.5" fill="none"/>
    <path d="M233 380H267" stroke="#9333EA" stroke-width="1.5" stroke-linecap="round"/>
  </g>

  <!-- Animated particles (represented as static elements in SVG) -->
  <circle cx="310" cy="160" r="3" fill="#EB38D9" opacity="0.8" />
  <circle cx="190" cy="160" r="3" fill="#9333EA" opacity="0.8" />
  <circle cx="310" cy="340" r="3" fill="#9333EA" opacity="0.8" />
  <circle cx="190" cy="340" r="3" fill="#EB38D9" opacity="0.8" />
  <circle cx="250" cy="310" r="3" fill="#EB38D9" opacity="0.8" />
  <circle cx="250" cy="190" r="3" fill="#9333EA" opacity="0.8" />

  <!-- Small details and flourishes -->
  <circle cx="275" cy="145" r="2" fill="#EB38D9" opacity="0.8" />
  <circle cx="225" cy="145" r="2" fill="#9333EA" opacity="0.8" />
  <circle cx="275" cy="355" r="2" fill="#9333EA" opacity="0.8" />
  <circle cx="225" cy="355" r="2" fill="#EB38D9" opacity="0.8" />
  <circle cx="170" cy="275" r="2" fill="#EB38D9" opacity="0.8" />
  <circle cx="170" cy="225" r="2" fill="#9333EA" opacity="0.8" />
  <circle cx="330" cy="275" r="2" fill="#9333EA" opacity="0.8" />
  <circle cx="330" cy="225" r="2" fill="#EB38D9" opacity="0.8" />

  <!-- Additional decorative elements -->
  <path d="M135 250H150" stroke="#9333EA" stroke-width="1" opacity="0.5" />
  <path d="M350 250H365" stroke="#EB38D9" stroke-width="1" opacity="0.5" />
  <path d="M250 110L260 100M250 390L240 400" stroke="#9333EA" stroke-width="1" opacity="0.5" />
</svg> 