<svg width="600" height="400" viewBox="0 0 600 400" fill="none" xmlns="http://www.w3.org/2000/svg">
  <!-- Background elements -->
  <circle cx="300" cy="200" r="150" fill="#10B981" fill-opacity="0.05"/>
  <circle cx="300" cy="200" r="120" fill="#10B981" fill-opacity="0.08" stroke="#10B981" stroke-opacity="0.2" stroke-width="2"/>
  <circle cx="300" cy="200" r="90" fill="#10B981" fill-opacity="0.12" stroke="#10B981" stroke-opacity="0.3" stroke-width="1"/>
  
  <!-- Decorative elements -->
  <path d="M300 50C300 50 380 120 380 200C380 280 300 350 300 350" stroke="#10B981" stroke-width="4" stroke-opacity="0.7" stroke-linecap="round" stroke-dasharray="1 12"/>
  <path d="M300 50C300 50 220 120 220 200C220 280 300 350 300 350" stroke="#10B981" stroke-width="4" stroke-opacity="0.7" stroke-linecap="round" stroke-dasharray="1 12"/>
  
  <!-- Main content elements -->
  <g filter="url(#shadow)">
    <!-- Document/Message icon -->
    <rect x="250" y="150" width="100" height="120" rx="8" fill="#0F172A" stroke="#10B981" stroke-width="2"/>
    <line x1="265" y1="175" x2="335" y2="175" stroke="#10B981" stroke-width="2"/>
    <line x1="265" y1="190" x2="335" y2="190" stroke="#E2E8F0" stroke-width="1.5" stroke-opacity="0.5"/>
    <line x1="265" y1="205" x2="335" y2="205" stroke="#E2E8F0" stroke-width="1.5" stroke-opacity="0.5"/>
    <line x1="265" y1="220" x2="315" y2="220" stroke="#E2E8F0" stroke-width="1.5" stroke-opacity="0.5"/>
    <line x1="265" y1="235" x2="295" y2="235" stroke="#E2E8F0" stroke-width="1.5" stroke-opacity="0.5"/>
  </g>
  
  <!-- Connecting nodes -->
  <circle cx="200" cy="130" r="15" fill="#0F172A" stroke="#10B981" stroke-width="1.5"/>
  <circle cx="400" cy="130" r="15" fill="#0F172A" stroke="#10B981" stroke-width="1.5"/>
  <circle cx="180" cy="240" r="15" fill="#0F172A" stroke="#10B981" stroke-width="1.5"/>
  <circle cx="420" cy="240" r="15" fill="#0F172A" stroke="#10B981" stroke-width="1.5"/>
  <circle cx="200" cy="320" r="15" fill="#0F172A" stroke="#10B981" stroke-width="1.5"/>
  <circle cx="300" cy="350" r="15" fill="#0F172A" stroke="#10B981" stroke-width="1.5"/>
  <circle cx="400" cy="320" r="15" fill="#0F172A" stroke="#10B981" stroke-width="1.5"/>
  
  <!-- Connection lines -->
  <line x1="250" y1="170" x2="215" y2="140" stroke="#10B981" stroke-width="1.5" stroke-opacity="0.6"/>
  <line x1="350" y1="170" x2="385" y2="140" stroke="#10B981" stroke-width="1.5" stroke-opacity="0.6"/>
  <line x1="250" y1="220" x2="195" y2="235" stroke="#10B981" stroke-width="1.5" stroke-opacity="0.6"/>
  <line x1="350" y1="220" x2="405" y2="235" stroke="#10B981" stroke-width="1.5" stroke-opacity="0.6"/>
  <line x1="270" y1="270" x2="215" y2="315" stroke="#10B981" stroke-width="1.5" stroke-opacity="0.6"/>
  <line x1="300" y1="270" x2="300" y2="335" stroke="#10B981" stroke-width="1.5" stroke-opacity="0.6"/>
  <line x1="330" y1="270" x2="385" y2="315" stroke="#10B981" stroke-width="1.5" stroke-opacity="0.6"/>
  
  <!-- Icons in circles -->
  <path d="M195 130L205 130M200 125L200 135" stroke="white" stroke-width="1.5" stroke-linecap="round"/>
  <path d="M395 130L405 130M400 125L400 135" stroke="white" stroke-width="1.5" stroke-linecap="round"/>
  <path d="M176 238C176 238 180 242 184 238" stroke="white" stroke-width="1.5" stroke-linecap="round"/>
  <path d="M416 238C416 238 420 242 424 238" stroke="white" stroke-width="1.5" stroke-linecap="round"/>
  <path d="M195 320L205 320M200 325L200 315" stroke="white" stroke-width="1.5" stroke-linecap="round"/>
  <path d="M295 350L305 350M300 345L300 355" stroke="white" stroke-width="1.5" stroke-linecap="round"/>
  <path d="M395 320L405 320M400 325L400 315" stroke="white" stroke-width="1.5" stroke-linecap="round"/>
  
  <!-- Accent elements -->
  <circle cx="300" cy="200" r="8" fill="#10B981"/>
  <circle cx="300" cy="100" r="4" fill="#10B981"/>
  <circle cx="200" cy="200" r="4" fill="#10B981"/>
  <circle cx="400" cy="200" r="4" fill="#10B981"/>
  <circle cx="300" cy="300" r="4" fill="#10B981"/>
  
  <!-- Pulse animation effect -->
  <circle cx="300" cy="200" r="50" stroke="#10B981" stroke-width="2" stroke-opacity="0.5" fill="none">
    <animate attributeName="r" from="50" to="80" dur="2s" repeatCount="indefinite"/>
    <animate attributeName="stroke-opacity" from="0.5" to="0" dur="2s" repeatCount="indefinite"/>
  </circle>
  
  <!-- Filter for drop shadow -->
  <defs>
    <filter id="shadow" x="240" y="140" width="120" height="140" filterUnits="userSpaceOnUse" color-interpolation-filters="sRGB">
      <feFlood flood-opacity="0" result="BackgroundImageFix"/>
      <feColorMatrix in="SourceAlpha" type="matrix" values="0 0 0 0 0 0 0 0 0 0 0 0 0 0 0 0 0 0 127 0" result="hardAlpha"/>
      <feOffset/>
      <feGaussianBlur stdDeviation="5"/>
      <feComposite in2="hardAlpha" operator="out"/>
      <feColorMatrix type="matrix" values="0 0 0 0 0.063 0 0 0 0 0.725 0 0 0 0 0.506 0 0 0 0.5 0"/>
      <feBlend mode="normal" in2="BackgroundImageFix" result="effect1_dropShadow_1_2"/>
      <feBlend mode="normal" in="SourceGraphic" in2="effect1_dropShadow_1_2" result="shape"/>
    </filter>
  </defs>
</svg> 